<?xml version="1.0" encoding="UTF-8" standalone="no"?><!DOCTYPE svg PUBLIC "-//W3C//DTD SVG 1.1//EN" "http://www.w3.org/Graphics/SVG/1.1/DTD/svg11.dtd"><svg width="100%" height="100%" viewBox="0 0 480 480" version="1.1" xmlns="http://www.w3.org/2000/svg" xmlns:xlink="http://www.w3.org/1999/xlink" xml:space="preserve" xmlns:serif="http://www.serif.com/" style="fill-rule:evenodd;clip-rule:evenodd;stroke-linejoin:round;stroke-miterlimit:2;"><g><path d="M195.904,219.352c9.788,17.013 12.645,37.873 2.699,63.101c-26.307,66.724 -115.321,79.241 -171.343,32.964c-8.51,-7.03 -9.712,-19.647 -2.682,-28.157c7.03,-8.51 19.647,-9.712 28.157,-2.682c35.301,29.16 92.08,25.248 108.657,-16.796c9.61,-24.375 -6.558,-39.791 -23.346,-49.91c-20.339,-12.259 -43.404,-17.605 -46.259,-18.236c-52.38,-9.131 -28.01,-59.036 3.61,-41.558c4.96,2.742 17.859,5.738 27.096,1.92c15.17,-6.271 35.589,-13.372 37.554,-41.399c1.56,-22.241 -16.013,-35.598 -35.684,-40.653c-21.345,-5.484 -46.71,-2.241 -59.626,14.341c-6.783,8.708 -19.36,10.272 -28.068,3.489c-8.708,-6.783 -10.272,-19.36 -3.489,-28.068c22.13,-28.412 64.565,-37.9 101.137,-28.504c38.251,9.828 68.665,38.945 65.632,82.192c-1.837,26.196 -12.537,43.697 -26.516,55.371c43.438,5.837 64.875,2.937 94.902,-9.638c0.071,-36.894 8.918,-66.591 17.8,-87.132l-46.137,0c-11.038,-0 -20,-8.962 -20,-20c0,-11.038 8.962,-20 20,-20l140,0c11.038,-0 20,8.962 20,20c0,11.038 -8.962,20 -20,20l-49.062,-0c-9.477,16.669 -28.597,59.173 -19.521,118.816c-8.707,16.881 -18.752,33.513 -29.458,49.561c-4.582,-13.73 -7.843,-26.921 -10.023,-39.519c-24.104,9.085 -44.961,12.582 -76.028,10.496Zm144.518,62.756c4.74,8.736 10.12,17.668 16.206,26.781c1.742,2.609 2.79,5.48 3.185,8.395c0.997,7.341 -2.139,14.956 -8.709,19.345c-8.575,5.727 -19.987,3.944 -26.45,-3.8c-0.455,-0.545 -0.886,-1.12 -1.289,-1.725c-7.392,-11.068 -13.887,-21.914 -19.572,-32.52c-1.181,-2.203 -2.327,-4.396 -3.439,-6.578c9.091,-12.643 17.911,-25.75 26.186,-39.158c3.853,9.48 8.447,19.241 13.883,29.26Z" style="fill:#007576;"/></g><path d="M300.353,292.006c-1.397,1.943 -2.8,3.874 -4.209,5.794c-1.889,2.575 -3.787,5.13 -5.692,7.662c4.404,-2.344 8.853,-4.641 13.34,-6.878c5.685,10.606 12.181,21.452 19.572,32.52c0.403,0.604 0.834,1.179 1.289,1.725c-8.994,4.445 -17.841,9.149 -26.46,13.988c-69.839,39.202 -124.91,88.128 -124.91,88.128c-8.236,7.321 -20.842,6.601 -28.19,-1.61c-7.349,-8.211 -6.672,-20.819 1.514,-28.196c0,0 62.551,-56.393 117.285,-131c6.146,-8.377 12.203,-16.984 18.063,-25.766c10.707,-16.048 20.751,-32.68 29.458,-49.561c13.998,-27.138 24.542,-54.919 28.83,-81.95c1.525,-9.61 9.744,-16.728 19.473,-16.864c9.729,-0.136 18.144,6.749 19.938,16.312l27.474,146.527c11.121,-1.822 22.104,-2.821 32.831,-2.841c11.038,-0.021 20.017,8.924 20.038,19.962c0.021,11.038 -8.924,20.017 -19.962,20.038c-8.374,0.016 -16.913,0.743 -25.55,2.074l25.17,134.24c2.034,10.849 -5.122,21.309 -15.972,23.343c-10.849,2.034 -21.309,-5.122 -23.343,-15.972l-24.758,-132.042c-5.261,1.73 -10.522,3.619 -15.767,5.644c-0.396,-2.915 -1.443,-5.786 -3.185,-8.395c-6.086,-9.113 -11.466,-18.045 -16.206,-26.781c9.216,-3.674 18.493,-7 27.767,-9.891l-13.396,-71.445c-8.171,17.626 -17.775,35.094 -28.255,52.077c-8.274,13.408 -17.094,26.515 -26.186,39.158Z" style="fill:#d5d5d5;"/></svg>